<?xml version="1.0" standalone="no"?>
<!DOCTYPE svg PUBLIC "-//W3C//DTD SVG 20010904//EN"
 "http://www.w3.org/TR/2001/REC-SVG-20010904/DTD/svg10.dtd">
<svg version="1.0" xmlns="http://www.w3.org/2000/svg"
 width="1080.000000pt" height="991.000000pt" viewBox="0 0 1080.000000 991.000000"
 preserveAspectRatio="xMidYMid meet">

<g transform="translate(0.000000,991.000000) scale(0.100000,-0.100000)"
fill="#000000" stroke="none">
<path d="M0 4955 l0 -4955 5400 0 5400 0 0 4955 0 4955 -5400 0 -5400 0 0
-4955z m5870 3235 c261 -24 561 -90 838 -185 182 -63 232 -82 232 -93 0 -4 -9
-119 -19 -257 -11 -137 -27 -356 -36 -485 -9 -129 -18 -245 -21 -257 -4 -21
-10 -23 -67 -23 l-62 0 -23 114 c-60 305 -178 548 -352 730 -169 176 -365 269
-594 282 -323 18 -608 -151 -698 -415 -32 -93 -32 -237 1 -341 71 -229 235
-434 516 -645 120 -90 321 -216 455 -286 580 -299 913 -665 1004 -1105 18 -85
43 -285 51 -408 5 -88 5 -88 -17 -83 -13 3 -147 34 -298 68 -151 34 -276 63
-278 64 -2 2 -9 32 -17 68 -74 353 -506 725 -1547 1331 -113 66 -196 149 -294
296 -142 215 -214 430 -214 645 0 149 21 238 91 379 40 80 95 151 200 256 270
271 670 393 1149 350z m-1657 -1424 c15 -4 29 -12 31 -19 2 -7 25 -70 50 -142
105 -290 186 -376 601 -635 404 -253 560 -360 780 -536 437 -350 648 -674 648
-994 -1 -222 -94 -425 -296 -641 -122 -131 -233 -197 -432 -258 -207 -63 -365
-84 -615 -84 -357 1 -695 73 -1055 225 -129 54 -118 42 -111 128 3 41 13 174
21 295 9 121 22 308 30 415 8 107 15 205 15 218 0 22 3 23 67 20 l68 -3 22
-160 c24 -169 51 -262 111 -380 143 -285 361 -473 617 -531 99 -22 244 -22
340 0 115 27 241 95 326 174 89 84 135 156 166 264 87 300 -64 614 -436 911
-91 73 -237 168 -346 227 -341 184 -578 345 -749 510 -157 151 -253 289 -310
442 -60 159 -104 506 -82 650 l7 44 252 -66 c139 -37 265 -70 280 -74z m-2219
-3794 c38 -22 76 -77 76 -108 0 -22 -4 -24 -50 -24 -38 0 -50 4 -50 15 0 32
-38 55 -90 55 -37 0 -55 -5 -70 -20 -39 -39 -17 -63 85 -90 44 -11 98 -31 119
-43 98 -56 99 -179 2 -251 -42 -32 -180 -36 -240 -6 -47 22 -82 69 -93 122 -5
27 -4 28 30 28 19 0 42 3 50 6 11 4 17 -4 22 -26 10 -46 57 -72 119 -67 36 3
55 11 68 27 40 49 13 83 -89 109 -132 35 -183 78 -183 158 1 63 40 110 111
132 46 14 145 5 183 -17z m3920 3 c41 -19 76 -70 76 -109 0 -25 -3 -26 -50
-26 -38 0 -50 4 -50 15 0 31 -38 55 -86 55 -57 0 -84 -14 -84 -44 0 -33 15
-42 115 -71 102 -30 142 -55 161 -101 21 -51 17 -95 -13 -142 -34 -53 -81 -72
-174 -72 -82 0 -125 16 -161 58 -24 29 -55 99 -46 106 1 2 24 6 49 8 45 5 46
4 58 -28 33 -93 210 -79 199 15 -3 27 -31 41 -152 76 -173 50 -184 222 -18
276 39 12 134 4 176 -16z m1243 -11 c26 -15 51 -40 63 -64 11 -22 20 -41 20
-43 0 -3 -21 -10 -47 -17 -38 -9 -48 -9 -52 2 -2 7 -17 25 -32 40 -22 23 -37
28 -73 28 -39 0 -52 -6 -84 -34 l-37 -34 -3 -94 c-3 -84 -1 -96 20 -128 31
-46 64 -62 113 -56 30 3 47 13 68 37 15 18 27 41 27 51 0 10 1 18 3 18 14 0
97 -33 97 -39 0 -15 -44 -87 -64 -105 -35 -31 -82 -46 -146 -46 -93 0 -160 43
-206 131 -25 48 -29 147 -9 215 20 71 89 145 151 162 57 16 141 6 191 -24z
m-4662 -134 c23 -85 43 -161 46 -169 3 -8 25 63 49 157 l43 172 79 0 78 0 0
-256 0 -255 -47 3 -48 3 -5 183 -5 184 -34 -139 c-19 -76 -41 -160 -48 -186
l-14 -48 -46 3 -47 3 -47 188 c-26 104 -50 191 -53 194 -3 4 -6 -82 -6 -190
l0 -197 -45 0 -45 0 0 255 0 256 78 -3 77 -3 40 -155z m868 -82 c54 -134 97
-249 97 -255 0 -9 -16 -13 -49 -13 l-48 0 -22 60 -22 60 -103 0 -104 0 -22
-60 -22 -60 -49 0 c-27 0 -49 4 -49 9 0 5 39 109 86 232 48 123 90 234 95 247
7 19 16 22 62 22 l54 0 96 -242z m634 217 c96 -57 79 -214 -26 -246 l-39 -12
33 -29 c30 -25 135 -177 135 -193 0 -3 -26 -5 -57 -3 l-57 3 -62 88 c-77 112
-80 115 -131 123 l-43 7 0 -112 0 -111 -50 0 -50 0 0 256 0 256 158 -4 c134
-3 162 -6 189 -23z m651 -17 l-3 -43 -73 0 -72 0 0 -212 0 -213 -50 0 -50 0 0
210 0 210 -42 2 c-24 0 -56 1 -73 2 -28 1 -30 4 -33 44 l-3 42 201 0 201 0 -3
-42z m1952 3 c0 -50 -9 -53 -148 -51 -59 1 -113 2 -119 1 -9 -1 -13 -19 -13
-56 l0 -55 130 0 130 0 0 -40 0 -40 -130 0 -130 0 0 -70 0 -70 145 0 145 0 0
-45 0 -45 -192 2 -193 3 -3 253 -2 252 190 0 190 0 0 -39z m960 -148 c1 -132
4 -193 13 -204 34 -45 110 -52 154 -15 l28 24 4 191 3 191 49 0 49 0 0 -152
c0 -180 -12 -272 -37 -300 -37 -41 -88 -58 -171 -58 -87 0 -124 17 -166 73
-19 26 -21 44 -24 233 l-3 204 50 0 51 0 0 -187z m883 163 c57 -38 75 -131 38
-192 -17 -28 -73 -64 -101 -64 -6 0 3 -12 21 -27 27 -23 139 -182 139 -198 0
-3 -26 -5 -57 -5 l-58 0 -58 89 c-71 109 -81 118 -135 127 l-42 7 0 -112 0
-111 -50 0 -50 0 0 256 0 256 163 -4 c138 -3 166 -6 190 -22z m657 -15 c0 -49
-8 -52 -130 -51 -155 2 -140 8 -140 -55 l0 -55 125 0 125 0 0 -40 0 -40 -125
0 -125 0 0 -70 0 -70 140 0 140 0 0 -45 0 -45 -190 0 -190 0 0 255 0 255 185
0 185 0 0 -39z m-520 -751 l0 -50 -3220 0 -3220 0 0 50 0 50 3220 0 3220 0 0
-50z m-5362 -296 c27 -19 29 -44 2 -44 -11 0 -20 5 -20 10 0 6 -16 10 -36 10
-51 0 -42 -29 14 -45 56 -17 72 -31 72 -65 0 -34 -40 -70 -77 -70 -22 0 -83
25 -83 34 0 3 -3 11 -6 19 -8 23 31 28 45 5 17 -27 76 -22 76 7 0 14 -10 22
-35 30 -59 17 -80 34 -80 61 0 55 77 84 128 48z m2080 -19 c30 -35 31 -111 2
-148 -46 -58 -147 -41 -170 28 -21 63 5 127 60 148 30 12 85 -2 108 -28z m280
8 l27 -28 -24 -3 c-13 -2 -26 1 -30 6 -3 6 -13 11 -21 12 -65 10 -66 -27 -2
-45 57 -17 72 -31 72 -69 0 -73 -127 -89 -158 -21 -9 19 -8 24 9 28 13 3 23
-2 30 -14 14 -28 74 -23 74 6 0 14 -10 22 -37 30 -68 19 -95 59 -65 97 29 37
89 37 125 1z m408 4 c16 -14 24 -29 20 -35 -10 -17 -33 -15 -40 3 -9 25 -63
19 -82 -10 -18 -27 -12 -94 9 -107 22 -14 57 -8 69 12 14 22 33 26 43 10 12
-19 -24 -59 -59 -65 -78 -15 -133 59 -107 145 20 67 95 91 147 47z m1107 12
c29 -13 57 -58 57 -93 0 -15 -6 -42 -14 -61 -27 -63 -130 -70 -171 -11 -20 27
-19 106 1 134 27 39 81 52 127 31z m645 -5 c12 -8 22 -22 22 -30 0 -15 -36
-20 -42 -5 -1 5 -10 10 -18 11 -65 9 -66 -27 -2 -45 55 -17 72 -31 72 -64 0
-32 -8 -44 -37 -60 -29 -15 -58 -14 -92 4 -38 19 -48 55 -16 55 13 0 26 -7 29
-16 9 -24 71 -15 71 11 0 14 -10 22 -37 30 -68 19 -95 59 -65 97 24 31 80 37
115 12z m-5168 -9 c0 -10 -10 -15 -30 -15 l-29 0 -3 -87 c-3 -80 -5 -88 -23
-88 -18 0 -20 8 -23 88 l-3 87 -29 0 c-20 0 -30 5 -30 15 0 12 16 15 85 15 69
0 85 -3 85 -15z m70 -25 l0 -40 40 0 40 0 0 40 c0 36 2 40 25 40 l26 0 -3
-102 c-3 -98 -4 -103 -25 -106 -21 -3 -23 0 -23 47 l0 51 -40 0 -40 0 0 -50
c0 -43 -3 -50 -20 -50 -19 0 -20 7 -20 105 0 98 1 105 20 105 17 0 20 -7 20
-40z m330 25 c0 -12 -13 -15 -60 -15 -57 0 -60 -1 -60 -25 0 -24 3 -25 55 -25
42 0 55 -3 55 -15 0 -12 -13 -15 -55 -15 -54 0 -55 0 -55 -30 l0 -30 60 0 c53
0 60 -2 60 -20 0 -18 -7 -20 -80 -20 l-80 0 0 105 0 105 80 0 c64 0 80 -3 80
-15z m397 -40 c23 -82 25 -83 42 -15 16 62 18 65 49 68 l32 3 0 -106 c0 -96
-2 -106 -17 -103 -15 3 -19 17 -23 73 l-5 70 -14 -60 c-25 -112 -51 -114 -79
-7 l-20 77 -1 -77 c-1 -71 -3 -78 -21 -78 -19 0 -20 7 -20 106 l0 105 32 -3
c28 -3 32 -8 45 -53z m316 -43 c21 -53 37 -100 37 -104 0 -5 -9 -8 -20 -8 -13
0 -22 9 -26 25 -5 22 -11 25 -54 25 -43 0 -49 -3 -54 -25 -4 -16 -13 -25 -26
-25 -11 0 -20 3 -20 7 0 3 17 51 38 105 33 87 40 98 62 98 22 0 29 -11 63 -98z
m225 86 c26 -26 4 -98 -29 -98 -6 0 3 -17 20 -37 33 -41 39 -63 17 -63 -18 0
-40 21 -63 60 -11 19 -25 30 -40 30 -21 0 -23 -5 -23 -45 0 -38 -3 -45 -20
-45 -19 0 -20 7 -20 105 l0 105 73 0 c43 0 78 -5 85 -12z m212 -3 c0 -10 -11
-15 -35 -15 l-35 0 0 -91 c0 -81 -2 -90 -17 -87 -15 3 -18 17 -21 91 l-3 87
-29 0 c-20 0 -30 5 -30 15 0 12 16 15 85 15 69 0 85 -3 85 -15z m139 -22 c5
-21 13 -54 17 -73 l7 -35 9 35 c30 117 27 111 56 108 23 -3 28 -10 41 -60 8
-32 18 -58 22 -58 3 0 12 27 18 60 10 50 15 60 33 60 16 0 19 -5 15 -22 -3
-13 -13 -58 -23 -102 -27 -118 -57 -115 -89 9 l-19 70 -20 -77 c-31 -120 -62
-116 -90 12 -9 41 -19 83 -22 93 -4 12 0 17 15 17 15 0 23 -10 30 -37z m374
-45 c51 -124 52 -128 27 -128 -13 0 -24 9 -30 25 -8 21 -16 25 -53 25 -36 0
-46 -4 -54 -23 -6 -12 -20 -23 -31 -24 -21 -2 -21 -2 2 60 54 141 57 147 81
147 19 0 29 -13 58 -82z m100 40 l24 -42 24 42 c17 29 31 42 46 42 22 0 22 -2
-12 -54 -24 -38 -35 -67 -37 -102 -2 -35 -7 -50 -19 -52 -13 -2 -17 8 -21 47
-4 36 -16 67 -42 106 -36 55 -36 55 -12 55 18 0 31 -11 49 -42z m377 27 c0
-10 -11 -15 -35 -15 l-35 0 0 -90 c0 -83 -1 -90 -20 -90 -19 0 -20 7 -20 90
l0 90 -30 0 c-20 0 -30 5 -30 15 0 12 16 15 85 15 69 0 85 -3 85 -15z m690 0
c0 -12 -13 -15 -60 -15 -57 0 -60 -1 -60 -25 0 -24 3 -25 55 -25 42 0 55 -3
55 -15 0 -12 -13 -15 -55 -15 -54 0 -55 0 -55 -30 l0 -30 60 0 c53 0 60 -2 60
-20 0 -18 -7 -20 -80 -20 l-80 0 0 105 0 105 80 0 c64 0 80 -3 80 -15z m290
-53 c0 -81 13 -105 55 -100 l30 3 3 83 c3 74 5 82 22 82 18 0 20 -7 20 -84 0
-80 -1 -86 -27 -106 -22 -17 -37 -21 -67 -17 -60 8 -70 25 -75 122 -3 81 -2
85 18 85 19 0 21 -6 21 -68z m334 52 c23 -23 20 -60 -7 -81 l-24 -17 31 -43
c16 -23 27 -45 24 -49 -14 -13 -47 9 -72 46 -36 55 -64 54 -68 -2 -2 -31 -8
-44 -20 -46 -16 -3 -18 7 -18 102 l0 106 69 0 c50 0 74 -4 85 -16z m216 1 c0
-12 -13 -15 -60 -15 -57 0 -60 -1 -60 -25 0 -24 3 -25 55 -25 42 0 55 -3 55
-15 0 -12 -13 -15 -55 -15 -54 0 -55 0 -55 -30 l0 -30 60 0 c53 0 60 -2 60
-20 0 -18 -7 -20 -80 -20 l-80 0 0 105 0 105 80 0 c64 0 80 -3 80 -15z m171
-25 l23 -40 23 40 c15 25 32 40 44 40 10 0 19 -2 19 -5 0 -2 -16 -29 -35 -59
-27 -43 -35 -66 -35 -101 0 -39 -3 -46 -17 -43 -14 2 -19 15 -21 51 -2 35 -13
64 -38 103 l-35 54 25 0 c18 0 30 -10 47 -40z m421 -42 l3 -83 35 0 35 0 3 83
c3 74 5 82 22 82 18 0 20 -7 20 -84 0 -79 -2 -86 -26 -105 -31 -25 -64 -27
-103 -6 -30 15 -41 56 -41 151 0 40 2 44 25 44 24 0 24 -2 27 -82z m328 63
c16 -32 12 -58 -15 -79 -22 -18 -23 -21 -9 -33 14 -12 44 -61 44 -74 0 -3 -9
-5 -19 -5 -12 0 -31 17 -48 43 -17 24 -38 43 -51 45 -20 3 -22 -1 -22 -42 0
-39 -3 -46 -20 -46 -19 0 -20 7 -20 105 l0 105 75 0 c63 0 76 -3 85 -19z m410
4 c0 -12 -13 -15 -60 -15 -57 0 -60 -1 -60 -25 0 -24 3 -25 55 -25 42 0 55 -3
55 -15 0 -12 -13 -15 -55 -15 -54 0 -55 0 -55 -30 l0 -30 60 0 c54 0 60 -2 60
-20 0 -19 -5 -21 -77 -18 l-78 3 -3 103 -3 102 81 0 c64 0 80 -3 80 -15z m80
-70 l0 -85 55 0 c48 0 55 -2 55 -20 0 -18 -7 -20 -75 -20 l-75 0 0 105 c0 98
1 105 20 105 18 0 20 -7 20 -85z m280 70 c0 -11 -12 -15 -50 -15 -47 0 -50 -2
-50 -25 0 -23 4 -25 45 -25 33 0 45 -4 45 -15 0 -11 -12 -15 -45 -15 l-45 0 0
-50 c0 -43 -3 -50 -20 -50 -19 0 -20 7 -20 105 l0 105 70 0 c56 0 70 -3 70
-15z"/>
<path d="M3187 2802 c-14 -37 -29 -79 -32 -94 l-7 -28 66 0 c36 0 66 4 66 9 0
9 -59 173 -64 178 -1 2 -14 -28 -29 -65z"/>
<path d="M3750 2840 l0 -60 88 0 c98 0 122 12 122 62 0 45 -27 58 -123 58
l-87 0 0 -60z"/>
<path d="M8190 2842 l0 -63 92 3 c87 3 93 4 107 29 19 34 8 77 -22 84 -12 2
-57 6 -99 7 l-78 3 0 -63z"/>
<path d="M5180 1865 c-7 -9 -13 -33 -13 -55 0 -50 17 -70 59 -70 38 0 54 21
54 70 0 49 -16 70 -54 70 -19 0 -39 -7 -46 -15z"/>
<path d="M7000 1861 c-15 -29 -12 -87 6 -105 20 -21 68 -20 85 0 7 9 14 33 14
54 0 21 -7 45 -14 54 -19 23 -78 21 -91 -3z"/>
<path d="M3607 1842 c-2 -9 -8 -25 -12 -34 -6 -15 -2 -18 23 -18 30 0 31 1 20
30 -12 37 -24 45 -31 22z"/>
<path d="M3790 1855 c0 -25 3 -26 43 -23 34 2 42 7 42 23 0 16 -8 21 -42 23
-40 3 -43 2 -43 -23z"/>
<path d="M4561 1830 c-14 -42 -15 -40 14 -40 28 0 31 13 11 49 l-13 24 -12
-33z"/>
<path d="M6310 1855 c0 -22 4 -25 39 -25 43 0 55 9 45 34 -4 11 -19 16 -45 16
-35 0 -39 -3 -39 -25z"/>
<path d="M7440 1855 c0 -25 3 -26 43 -23 34 2 42 7 42 23 0 16 -8 21 -42 23
-40 3 -43 2 -43 -23z"/>
</g>
</svg>
